<?xml version="1.0" standalone="no"?>
<!DOCTYPE svg PUBLIC "-//W3C//DTD SVG 20010904//EN"
 "http://www.w3.org/TR/2001/REC-SVG-20010904/DTD/svg10.dtd">
<svg version="1.0" xmlns="http://www.w3.org/2000/svg"
 width="816.000000pt" height="816.000000pt" viewBox="0 0 816.000000 816.000000"
 preserveAspectRatio="xMidYMid meet">
<metadata>
Created by potrace 1.14, written by Peter Selinger 2001-2017
</metadata>
<g transform="translate(0.000000,816.000000) scale(0.100000,-0.100000)"
fill="#000000" stroke="none">
<path d="M4000 8054 c-25 -14 -74 -42 -110 -61 -35 -19 -98 -54 -140 -78 -41
-23 -104 -58 -140 -77 -138 -75 -185 -101 -195 -108 -5 -4 -48 -28 -95 -53
-145 -77 -155 -82 -160 -87 -3 -3 -23 -14 -45 -25 -22 -11 -56 -29 -75 -41
-19 -12 -64 -37 -100 -56 -59 -32 -117 -64 -225 -124 -22 -13 -60 -34 -85 -47
-25 -14 -65 -36 -90 -50 -25 -14 -65 -35 -90 -48 -25 -12 -47 -25 -50 -28 -5
-6 -20 -14 -130 -73 -30 -16 -62 -33 -70 -38 -24 -15 -222 -124 -260 -143 -19
-10 -66 -36 -105 -58 -38 -22 -86 -47 -105 -57 -19 -9 -37 -20 -40 -23 -3 -3
-45 -27 -95 -54 -49 -26 -145 -79 -212 -117 -68 -37 -127 -68 -133 -68 -5 0
-10 -4 -10 -8 0 -4 -16 -14 -35 -21 -19 -7 -35 -17 -35 -22 0 -5 -9 -9 -20 -9
-11 0 -20 -3 -20 -7 0 -5 -10 -13 -23 -19 -63 -30 -132 -69 -135 -76 -2 -4 -9
-8 -15 -8 -6 0 -58 -24 -115 -52 -138 -70 -156 -80 -162 -88 -3 -3 -12 -9 -21
-12 -18 -7 -208 -139 -247 -171 -83 -71 -186 -176 -235 -240 -80 -104 -120
-184 -165 -332 -11 -37 -14 -1877 -2 -1870 5 3 10 11 10 16 0 13 61 103 72
107 4 2 8 8 8 12 0 18 97 120 196 207 76 68 72 64 135 109 30 21 56 42 57 46
2 5 8 8 12 8 9 0 124 70 148 90 6 6 12 8 12 4 0 -3 7 -1 15 6 8 6 45 28 82 48
37 19 100 52 138 73 39 21 84 44 101 52 17 8 35 20 38 26 4 6 16 11 27 11 10
0 19 5 19 10 0 6 4 10 10 10 8 0 384 201 430 230 16 10 148 82 265 145 39 21
75 41 80 45 6 4 42 24 80 44 39 20 77 41 85 46 8 5 56 31 105 58 50 27 122 66
160 87 130 72 170 94 215 117 25 13 47 25 50 28 3 3 16 11 30 17 23 11 63 33
195 108 28 15 88 48 135 73 47 25 102 56 123 69 21 13 48 28 60 34 12 5 31 15
42 22 11 7 65 36 120 66 55 30 116 63 135 74 19 11 51 29 70 39 44 24 141 77
200 110 86 48 165 92 205 112 22 12 42 23 45 26 3 3 32 19 66 37 l60 32 40
-21 c21 -11 102 -55 179 -98 77 -42 169 -93 205 -112 74 -40 145 -80 240 -133
36 -19 81 -43 100 -53 19 -9 37 -20 38 -24 2 -5 7 -8 11 -8 7 0 183 -95 331
-177 55 -31 133 -74 220 -121 36 -19 91 -50 123 -68 32 -19 62 -34 66 -34 5 0
14 -7 21 -15 7 -9 15 -13 18 -11 3 3 17 -3 31 -12 14 -10 51 -31 81 -46 30
-16 67 -38 83 -48 15 -11 27 -17 27 -14 0 3 21 -8 47 -24 26 -17 53 -30 60
-30 7 0 13 -4 13 -10 0 -5 4 -10 9 -10 5 0 85 -42 177 -94 93 -51 205 -112
249 -135 44 -24 85 -46 90 -50 6 -5 51 -30 100 -56 50 -27 109 -59 133 -72 23
-12 61 -34 85 -46 23 -13 83 -45 132 -72 50 -26 95 -51 100 -55 6 -4 42 -25
80 -45 39 -21 93 -50 121 -65 l52 -28 58 34 c102 60 168 101 194 121 8 7 44
34 80 60 90 67 248 225 304 305 101 144 147 283 150 462 3 129 -14 267 -36
294 -6 6 -7 12 -4 12 4 0 1 10 -6 23 -7 12 -13 24 -13 27 -9 35 -76 150 -112
190 -12 14 -21 27 -21 30 2 5 -132 140 -178 180 -111 95 -321 239 -376 257
-10 3 -18 10 -18 15 0 5 -4 7 -9 4 -5 -3 -14 1 -21 9 -7 8 -16 15 -21 15 -14
0 -245 116 -259 130 -3 3 -18 12 -35 20 -16 8 -126 68 -242 133 -117 64 -216
117 -219 117 -3 0 -18 8 -32 18 -15 11 -57 35 -94 55 -38 21 -98 53 -135 74
-38 20 -80 44 -94 54 -14 10 -29 16 -33 12 -3 -3 -6 -1 -6 5 0 7 -9 12 -19 12
-11 0 -21 4 -23 8 -3 9 -207 122 -220 122 -4 0 -8 5 -8 10 0 6 -5 10 -12 10
-6 0 -45 20 -87 44 -42 24 -105 59 -141 78 -36 19 -85 46 -110 60 -25 14 -72
40 -105 58 -33 18 -75 42 -94 53 -19 10 -55 30 -80 44 -25 13 -62 34 -81 45
-19 11 -60 34 -90 50 -30 16 -62 33 -70 38 -57 34 -252 139 -269 145 -12 3
-21 11 -21 16 0 5 -9 9 -20 9 -11 0 -20 4 -20 9 0 5 -8 11 -17 14 -10 3 -43
20 -73 38 -59 33 -160 89 -225 123 -22 12 -42 23 -45 26 -3 3 -23 14 -45 26
-22 11 -78 42 -124 67 -46 26 -84 47 -85 47 0 0 -21 -12 -46 -26z"/>
<path d="M8077 4544 c-7 -22 -36 -70 -57 -94 -8 -10 -26 -33 -40 -51 -71 -96
-256 -260 -380 -339 -30 -19 -57 -37 -60 -41 -3 -3 -23 -16 -45 -28 -22 -12
-67 -37 -100 -55 -33 -19 -109 -59 -170 -91 -60 -31 -117 -64 -127 -72 -9 -8
-22 -15 -30 -17 -7 -1 -17 -4 -23 -8 -5 -3 -37 -21 -70 -38 -69 -38 -125 -69
-192 -106 -25 -15 -74 -41 -107 -59 -34 -17 -81 -43 -106 -57 -38 -21 -185
-102 -415 -228 -27 -15 -88 -48 -134 -74 -46 -25 -85 -46 -87 -46 -3 0 -21
-11 -42 -23 -20 -13 -73 -43 -117 -66 -44 -23 -87 -46 -95 -51 -31 -19 -248
-139 -321 -177 -41 -22 -86 -47 -100 -55 -13 -9 -58 -33 -99 -55 -41 -22 -93
-51 -115 -63 -22 -13 -65 -37 -95 -53 -30 -17 -115 -63 -188 -104 -73 -40
-137 -73 -142 -73 -6 0 -10 -4 -10 -8 0 -5 -16 -14 -35 -22 -19 -8 -35 -18
-35 -22 0 -5 -4 -7 -9 -3 -5 3 -13 0 -16 -6 -4 -6 -26 -19 -49 -30 -22 -10
-63 -32 -91 -48 -27 -16 -79 -44 -115 -63 -36 -18 -67 -36 -70 -39 -3 -3 -36
-22 -74 -42 l-69 -36 -96 51 c-53 28 -102 58 -109 65 -8 7 -17 11 -22 8 -4 -3
-13 2 -20 10 -7 8 -16 15 -20 15 -4 0 -40 19 -81 41 -41 23 -96 54 -124 69
-27 15 -72 39 -100 55 -125 69 -176 97 -330 180 -38 21 -82 47 -97 57 -16 11
-28 16 -28 13 0 -3 -13 3 -29 14 -15 11 -39 25 -52 30 -13 6 -55 29 -94 51
-38 22 -97 54 -130 71 -33 18 -72 40 -87 51 -16 11 -28 16 -28 11 0 -4 -4 -3
-8 2 -4 6 -32 23 -62 39 -55 29 -65 35 -170 93 -30 17 -80 44 -110 61 -30 16
-84 46 -120 66 -36 20 -76 42 -90 49 -14 6 -27 14 -30 17 -3 3 -21 13 -40 22
-19 9 -51 26 -70 37 -40 23 -370 204 -457 251 -32 17 -76 41 -98 54 -22 12
-74 40 -115 63 -41 22 -93 51 -115 63 -22 12 -71 40 -110 60 -38 21 -103 56
-144 78 l-74 40 -82 -48 c-132 -76 -325 -214 -325 -231 0 -5 -5 -9 -11 -9 -14
0 -144 -133 -196 -201 -78 -103 -126 -201 -157 -324 -12 -45 -15 -99 -12 -215
2 -85 7 -166 10 -180 4 -14 9 -32 11 -40 2 -8 4 -16 5 -17 2 -2 3 -6 5 -10 14
-50 56 -134 107 -210 76 -115 200 -235 393 -381 52 -39 228 -141 364 -210 176
-89 227 -116 251 -132 8 -5 119 -67 245 -136 127 -69 253 -139 280 -154 152
-84 245 -135 290 -160 28 -15 88 -48 134 -74 46 -25 87 -46 91 -46 5 0 10 -3
12 -7 2 -5 28 -21 58 -36 30 -16 62 -32 70 -38 18 -11 235 -132 305 -169 28
-15 70 -38 95 -52 77 -43 154 -85 190 -104 19 -11 37 -21 40 -24 3 -3 21 -13
40 -22 33 -16 100 -53 215 -118 111 -63 132 -74 180 -99 28 -14 52 -28 55 -31
3 -3 28 -17 55 -31 28 -15 93 -50 145 -79 52 -29 118 -65 145 -80 28 -15 70
-39 95 -52 166 -92 158 -89 182 -76 13 7 25 15 28 18 3 3 19 12 35 20 17 8 67
36 113 62 46 27 85 48 87 48 7 0 239 131 253 142 6 6 12 7 12 2 0 -5 4 -4 8 2
4 5 23 18 42 27 35 18 83 44 110 62 8 5 17 10 20 10 3 0 25 12 50 26 117 68
231 129 239 129 5 0 11 3 13 8 2 4 23 17 48 30 69 36 124 66 130 72 3 3 21 13
40 22 58 28 135 72 141 81 3 5 8 8 10 6 4 -2 68 31 99 51 18 12 254 141 330
182 30 16 62 33 70 38 17 11 156 87 245 135 33 18 76 41 95 53 19 11 55 31 80
44 88 47 206 112 242 135 21 12 40 23 43 23 4 0 185 99 235 129 8 5 51 28 95
51 44 23 82 45 85 49 3 3 21 14 40 23 214 102 457 241 495 282 6 6 28 24 50
41 130 96 268 247 339 374 33 58 74 156 82 196 2 11 7 34 11 50 8 36 11 1808
2 1832 -5 15 -6 15 -12 -3z"/>
</g>
</svg>
