<svg width="51" height="50" viewBox="0 0 51 50" fill="none" xmlns="http://www.w3.org/2000/svg">
<path fill-rule="evenodd" clip-rule="evenodd" d="M25.2946 0.00175014L25.2978 0V0.00355289C26.2855 0.549537 44.6306 10.6755 44.6306 10.6755C44.7239 10.7099 50.5905 13.1667 50.5905 17.1244V17.8502C50.5905 20.8355 47.2507 22.9562 45.6584 23.7991C44.604 23.2308 36.071 18.5434 30.3562 15.404L30.3507 15.401L30.348 15.3995C27.7862 13.9923 25.7924 12.897 25.2949 12.6246C25.0347 12.7683 6.84756 22.8045 4.69922 23.9102C2.95341 24.8259 0.984053 26.2017 0 28.0552V17.1192C0 13.1667 5.8662 10.7103 5.93109 10.6898C5.93109 10.6898 24.3048 0.546727 25.2913 0.00355289V0L25.2946 0.00175014ZM25.2913 49.9963V49.9989C25.2922 49.9984 25.293 49.9978 25.2938 49.9973C25.2952 49.9984 25.2965 49.9989 25.2978 50V49.9952C26.2855 49.4522 44.6613 39.3127 44.6613 39.3127C44.7234 39.2892 50.5905 36.832 50.5905 32.8797V21.9439C49.6038 23.7955 47.6373 25.1731 45.8916 26.0825C43.7432 27.1939 25.5561 37.2303 25.2943 37.3745C23.6909 36.4905 6.45885 27.0241 4.93252 26.2016C3.34109 27.0444 0 29.1622 0 32.1473V32.8755C0 36.833 5.8662 39.2856 5.96089 39.3237C5.96089 39.3237 24.3051 49.4473 25.2913 49.9963Z" fill="white"/>
</svg>
